<svg width="21" height="15" viewBox="0 0 21 15" fill="none" xmlns="http://www.w3.org/2000/svg">
<g clip-path="url(#clip0_102_133)">
<path d="M21 7.09048C21 3.18253 16.3056 0 10.5 0C4.69438 0 0 3.18253 0 7.09048C0 7.19579 0 7.4649 0 7.5C0 11.642 4.10475 15 10.5 15C16.8952 15 21 11.642 21 7.5V7.07878V7.09048Z" fill="#4E4E4E"/>
<path d="M20.6031 7.07883C20.6031 10.7645 16.0788 13.7481 10.5 13.7481C4.92116 13.7481 0.408203 10.7645 0.408203 7.07883C0.408203 3.39318 4.9325 0.421265 10.5 0.421265C16.0675 0.421265 20.6031 3.40488 20.6031 7.09053V7.07883Z" fill="#A3A1A1"/>
<path d="M7.15503 4.98442C7.15503 4.98442 7.05298 5.10142 7.10968 5.18333C7.26842 5.39394 7.75601 5.51094 8.25493 5.39394C8.54974 5.32373 8.93527 5.00782 9.29812 4.71531C9.69499 4.3877 10.0919 4.06008 10.4887 3.93138C10.9083 3.79097 11.1804 3.84947 11.3618 3.90798C11.5546 3.96648 11.7927 4.09518 12.1556 4.3877C12.8473 4.92592 15.6253 7.42982 16.1016 7.86273C16.4871 7.68723 18.2106 6.915 20.5465 6.38848C20.3424 5.10142 19.5827 3.93138 18.4374 2.97194C16.8386 3.66227 14.877 4.02498 12.972 3.06554C12.972 3.06554 11.9288 2.55072 10.9083 2.58582C9.38883 2.62092 8.73117 3.29955 8.03948 4.01328L7.15503 4.99612V4.98442Z" fill="#DAD9D9"/>
<path d="M15.9996 8.13187C15.9996 8.13187 12.7339 5.18335 11.9969 4.61003C11.5773 4.28241 11.3392 4.20051 11.0897 4.16541C10.965 4.15371 10.7836 4.16541 10.6589 4.21221C10.3187 4.30581 9.87645 4.61003 9.47958 4.93764C9.07138 5.27695 8.68585 5.59287 8.323 5.67477C7.86943 5.78007 7.30248 5.65137 7.05302 5.47586C6.95097 5.40566 6.87159 5.32376 6.83758 5.24185C6.74686 5.01954 6.91695 4.83234 6.95097 4.80893L7.84676 3.81439C7.94881 3.70909 8.05086 3.60379 8.16425 3.49848C7.88077 3.53358 7.60863 3.61549 7.34784 3.68569C7.019 3.77929 6.71285 3.8729 6.39535 3.8729C6.25928 3.8729 5.55626 3.75589 5.43153 3.72079C4.62645 3.49848 3.91209 3.27617 2.85755 2.76135C1.58758 3.73249 0.737144 4.94934 0.499023 6.29489C0.680449 6.3417 0.975265 6.4353 1.1 6.4587C3.96879 7.11393 4.86457 7.79255 5.02332 7.93296C5.19341 7.73405 5.45421 7.60535 5.73768 7.60535C6.05518 7.60535 6.33866 7.76915 6.52008 8.02656C6.69017 7.89786 6.90561 7.78085 7.20043 7.78085C7.3365 7.78085 7.47257 7.80425 7.60863 7.85106C7.93747 7.96806 8.09622 8.19037 8.18693 8.38928C8.30032 8.34248 8.42505 8.29567 8.5838 8.30737C8.74254 8.30737 8.90129 8.34248 9.06004 8.41268C9.59298 8.64669 9.67235 9.18491 9.62699 9.58273C9.66101 9.58273 9.70637 9.58273 9.74039 9.58273C10.364 9.58273 10.8743 10.1092 10.8743 10.7528C10.8743 10.9517 10.8289 11.1389 10.7382 11.3027C10.9083 11.3963 11.3392 11.6303 11.7247 11.5718C12.0309 11.5367 12.1443 11.4197 12.1896 11.3612C12.2236 11.3144 12.2463 11.2676 12.2236 11.2325L11.4186 10.3082C11.4186 10.3082 11.2825 10.1794 11.3279 10.1326C11.3732 10.0858 11.4526 10.156 11.5093 10.2029C11.9175 10.5539 12.4278 11.0921 12.4278 11.0921C12.4278 11.0921 12.4731 11.1623 12.6545 11.1974C12.8133 11.2325 13.0968 11.2091 13.2895 11.0453C13.3349 10.9985 13.3916 10.9517 13.4256 10.8932C13.6297 10.6241 13.4029 10.3433 13.4029 10.3433L12.4618 9.24341C12.4618 9.24341 12.3257 9.11471 12.3711 9.06791C12.4164 9.0211 12.4958 9.09131 12.5638 9.13811C12.8586 9.39552 13.2895 9.84014 13.6864 10.2497C13.7658 10.3082 14.1173 10.5422 14.5935 10.2146C14.877 10.0156 14.9337 9.78163 14.9337 9.60613C14.911 9.37212 14.7296 9.19661 14.7296 9.19661L13.4369 7.85106C13.4369 7.85106 13.3009 7.73405 13.3462 7.67555C13.3802 7.62875 13.4709 7.69895 13.5276 7.74575C13.9359 8.09677 15.0584 9.14981 15.0584 9.14981C15.0698 9.14981 15.4553 9.44232 15.9315 9.12641C16.1016 9.0094 16.215 8.8456 16.215 8.64669C16.2263 8.30737 15.9996 8.10847 15.9996 8.10847V8.13187Z" fill="#DAD9D9"/>
<path d="M9.72902 9.82837C9.52492 9.82837 9.30948 9.94537 9.27546 9.93367C9.26412 9.93367 9.2868 9.84007 9.30948 9.79327C9.33216 9.74646 9.59296 8.92743 8.94663 8.64662C8.45905 8.42431 8.15289 8.67002 8.05084 8.78703C8.02816 8.81043 8.01682 8.81043 8.00548 8.78703C8.00548 8.63492 7.92611 8.2371 7.50656 8.1084C6.89425 7.92119 6.50872 8.35411 6.40667 8.50621C6.36131 8.1435 6.0665 7.87439 5.71499 7.87439C5.32946 7.87439 5.01196 8.202 5.01196 8.59982C5.01196 8.99763 5.32946 9.32525 5.71499 9.32525C5.90775 9.32525 6.07784 9.24334 6.20257 9.12634C6.20257 9.12634 6.20257 9.12634 6.20257 9.14974C6.16855 9.32525 6.12319 9.98047 6.78086 10.2496C7.04166 10.3549 7.26844 10.273 7.46121 10.1443C7.5179 10.1092 7.52924 10.1209 7.5179 10.1794C7.49522 10.3432 7.5179 10.7059 8.01682 10.9165C8.39101 11.0686 8.60645 10.9165 8.75386 10.7761C8.8219 10.7176 8.83324 10.7293 8.83324 10.8229C8.85592 11.3143 9.24144 11.7004 9.71769 11.7004C10.2053 11.7004 10.6021 11.2909 10.6021 10.7878C10.6021 10.2847 10.2053 9.87517 9.71769 9.87517L9.72902 9.82837Z" fill="#DAD9D9"/>
<path d="M16.1241 7.78078C15.1263 6.87985 12.8244 4.82056 12.2008 4.34084C11.8493 4.06003 11.5998 3.91963 11.3844 3.84942C11.2936 3.81432 11.1576 3.79092 10.9875 3.79092C10.8287 3.79092 10.6587 3.82602 10.4772 3.88453C10.069 4.01323 9.67216 4.34084 9.28663 4.66846H9.26395C8.9011 4.98437 8.52691 5.28858 8.24343 5.35878C8.1187 5.38219 7.99397 5.40559 7.86924 5.40559C7.55175 5.40559 7.26827 5.31198 7.16622 5.17158C7.14354 5.14818 7.16622 5.11307 7.20024 5.05457L8.07335 4.07173C8.76503 3.358 9.41136 2.69108 10.8968 2.65598C10.9195 2.65598 10.9421 2.65598 10.9762 2.65598C11.906 2.65598 12.8358 3.08889 12.9378 3.1357C13.8109 3.56861 14.7067 3.79092 15.6138 3.80262C16.555 3.80262 17.5302 3.55691 18.5507 3.07719C18.4373 2.98359 18.3125 2.87829 18.1992 2.78468C17.3034 3.1825 16.4416 3.39311 15.6252 3.39311C14.7861 3.39311 13.9357 3.1825 13.1192 2.77298C13.0739 2.74958 12.0534 2.25816 10.9875 2.24646C10.9648 2.24646 10.9308 2.24646 10.9081 2.24646C9.64948 2.28156 8.94646 2.73788 8.47022 3.1357C8.00531 3.1357 7.60845 3.2644 7.25693 3.36971C6.93944 3.46331 6.6673 3.53351 6.4065 3.53351C6.29311 3.53351 6.10035 3.53351 6.07767 3.53351C5.77151 3.53351 4.2294 3.1357 3.00477 2.65598C2.88004 2.74958 2.75531 2.84318 2.64192 2.93679C3.92324 3.47501 5.48804 3.89623 5.97562 3.93133C6.11169 3.93133 6.25909 3.95473 6.4065 3.95473C6.73533 3.95473 7.05283 3.86112 7.37032 3.76752C7.55175 3.70902 7.76719 3.65052 7.98264 3.61541C7.92594 3.67392 7.86924 3.73242 7.81255 3.79092L6.91676 4.78546C6.84873 4.85566 6.68998 5.05457 6.79203 5.28858C6.83739 5.38219 6.91676 5.47579 7.03015 5.55769C7.24559 5.7098 7.61978 5.8034 7.9713 5.8034C8.10737 5.8034 8.2321 5.7917 8.34549 5.7683C8.71968 5.6864 9.1052 5.35878 9.52475 5.01947C9.85358 4.75036 10.3298 4.39935 10.6813 4.30574C10.7834 4.28234 10.9081 4.25894 10.9988 4.25894C11.0329 4.25894 11.0555 4.25894 11.0782 4.25894C11.3163 4.29404 11.5431 4.37595 11.9513 4.69186C12.677 5.25348 15.92 8.1786 15.954 8.202C15.954 8.202 16.1581 8.38921 16.1468 8.69342C16.1468 8.86892 16.0447 9.00933 15.886 9.11463C15.7499 9.20824 15.6025 9.25504 15.4664 9.25504C15.251 9.25504 15.1036 9.14974 15.0922 9.13804C15.0809 9.13804 13.9697 8.08499 13.5615 7.72228C13.4934 7.66378 13.4367 7.61697 13.3687 7.61697C13.3347 7.61697 13.3007 7.62868 13.2893 7.66378C13.2213 7.74568 13.2893 7.86268 13.38 7.93289L14.6727 9.27844C14.6727 9.27844 14.8314 9.43055 14.8541 9.64116C14.8541 9.86346 14.7634 10.0507 14.548 10.1911C14.4006 10.2964 14.2418 10.3432 14.0944 10.3432C13.8903 10.3432 13.7542 10.2496 13.7202 10.2262L13.5388 10.039C13.1986 9.69966 12.8471 9.33694 12.5976 9.11463C12.5296 9.05613 12.4729 9.00933 12.4049 9.00933C12.3709 9.00933 12.3482 9.02103 12.3255 9.04443C12.2915 9.07953 12.2802 9.13804 12.3482 9.24334C12.3822 9.29014 12.4162 9.31354 12.4162 9.31354L13.3574 10.4134C13.3574 10.4134 13.5501 10.6474 13.38 10.8814L13.346 10.9282C13.346 10.9282 13.2893 10.9867 13.2553 11.0101C13.0966 11.1505 12.8811 11.1622 12.7904 11.1622C12.7451 11.1622 12.6997 11.1622 12.6657 11.1622C12.575 11.1505 12.5069 11.1154 12.4843 11.0803H12.4729C12.4162 11.0101 11.94 10.507 11.5544 10.1677C11.4978 10.1209 11.4411 10.0624 11.373 10.0624C11.339 10.0624 11.305 10.0741 11.2823 10.0975C11.2029 10.1911 11.3163 10.3198 11.373 10.3666L12.1781 11.2792C12.1781 11.2792 12.1781 11.3026 12.1441 11.3377C12.1101 11.3845 12.0194 11.4781 11.7245 11.5132C11.6905 11.5132 11.6565 11.5132 11.6225 11.5132C11.3163 11.5132 10.9988 11.3611 10.8287 11.2675C10.9081 11.1037 10.9421 10.9165 10.9421 10.741C10.9421 10.0624 10.4092 9.50075 9.74019 9.50075C9.72886 9.50075 9.70618 9.50075 9.69484 9.50075C9.71752 9.18484 9.67216 8.59981 9.08253 8.3307C8.91244 8.2605 8.74236 8.2137 8.58361 8.2137C8.45888 8.2137 8.33415 8.2371 8.22076 8.2839C8.09603 8.03819 7.89192 7.86268 7.63112 7.76908C7.48372 7.72228 7.33631 7.68718 7.20024 7.68718C6.95078 7.68718 6.73533 7.75738 6.53123 7.90949C6.33847 7.66378 6.04365 7.51167 5.73749 7.51167C5.46536 7.51167 5.2159 7.61697 5.02313 7.81588C4.77367 7.61697 3.77583 6.96175 1.11115 6.34162C0.986415 6.30652 0.691599 6.22462 0.510173 6.16612C0.476156 6.31822 0.453478 6.47033 0.442139 6.62243C0.442139 6.62243 0.92972 6.73944 1.03177 6.76284C3.75315 7.38297 4.64894 8.03819 4.80769 8.1552C4.75099 8.2839 4.72832 8.42431 4.72832 8.55301C4.72832 9.13804 5.18188 9.60605 5.74883 9.60605C5.81687 9.60605 5.87356 9.60605 5.93026 9.59435C6.00963 10.0156 6.28177 10.3432 6.70132 10.507C6.82605 10.5538 6.93944 10.5772 7.06417 10.5772C7.14354 10.5772 7.22292 10.5772 7.29095 10.5421C7.37032 10.741 7.54041 10.9867 7.92594 11.1505C8.06201 11.209 8.19808 11.2324 8.32281 11.2324C8.42486 11.2324 8.53825 11.209 8.62896 11.1739C8.81039 11.6419 9.25261 11.9461 9.74019 11.9461C10.069 11.9461 10.3752 11.8057 10.602 11.5717C10.7947 11.6887 11.2029 11.8876 11.6225 11.8876C11.6792 11.8876 11.7245 11.8876 11.7812 11.8876C12.1894 11.8291 12.3822 11.6653 12.4729 11.5366C12.4843 11.5132 12.5069 11.4898 12.5183 11.4664C12.6203 11.4898 12.7224 11.5132 12.8471 11.5132C13.0739 11.5132 13.2893 11.4313 13.5048 11.2675C13.7202 11.1037 13.8676 10.8814 13.8903 10.6825C13.9583 10.6942 14.0377 10.7059 14.1057 10.7059C14.3325 10.7059 14.5593 10.6357 14.7861 10.4836C15.2056 10.2028 15.2737 9.82836 15.2737 9.58265C15.3417 9.59435 15.4211 9.60605 15.5005 9.60605C15.7159 9.60605 15.9313 9.53585 16.1354 9.40715C16.3962 9.23164 16.555 8.97423 16.5777 8.67002C16.589 8.45941 16.5436 8.2488 16.4416 8.07329C17.1446 7.75738 18.7434 7.16066 20.6371 6.71604C20.6371 6.56393 20.603 6.41183 20.5804 6.27142C18.2899 6.79794 16.589 7.55847 16.1581 7.75738L16.1241 7.78078ZM9.72886 11.5951C9.28663 11.5951 8.92378 11.2441 8.91244 10.7878C8.91244 10.7527 8.91244 10.6474 8.82173 10.6474C8.78771 10.6474 8.75369 10.6708 8.71968 10.7059C8.61762 10.7995 8.49289 10.8931 8.31147 10.8931C8.23209 10.8931 8.14138 10.8697 8.05067 10.8346C7.58577 10.6357 7.57443 10.3081 7.59711 10.1677C7.59711 10.1326 7.59711 10.0975 7.58577 10.0624L7.55175 10.039H7.51773C7.51773 10.039 7.47238 10.039 7.43836 10.0741C7.30229 10.1677 7.17756 10.2145 7.04149 10.2145C6.97346 10.2145 6.89408 10.2028 6.81471 10.1677C6.2024 9.92197 6.24775 9.31354 6.28177 9.13804C6.28177 9.10293 6.28177 9.06783 6.25909 9.05613L6.21374 9.02103L6.16838 9.05613C6.04365 9.17314 5.89624 9.24334 5.72616 9.24334C5.37464 9.24334 5.07983 8.95083 5.07983 8.57641C5.07983 8.2137 5.36331 7.90949 5.72616 7.92119C6.04365 7.92119 6.31579 8.1669 6.36115 8.49451L6.38382 8.67002L6.47454 8.51791C6.47454 8.51791 6.74667 8.09669 7.22292 8.09669C7.31363 8.09669 7.40434 8.10839 7.50639 8.1435C7.88058 8.2605 7.94862 8.62321 7.95996 8.76362C7.95996 8.84552 8.02799 8.85722 8.03933 8.85722C8.07335 8.85722 8.09603 8.83382 8.1187 8.82212C8.18674 8.74022 8.34549 8.61151 8.59495 8.61151C8.70834 8.61151 8.82173 8.63492 8.94646 8.69342C9.54743 8.96253 9.27529 9.74646 9.27529 9.75816C9.2186 9.88687 9.2186 9.94537 9.27529 9.98047H9.29797L9.32065 9.99217C9.34333 9.99217 9.37734 9.98047 9.43404 9.95707C9.51341 9.93367 9.63814 9.88687 9.75153 9.88687C10.2051 9.88687 10.5793 10.273 10.5793 10.741C10.5793 11.209 10.2051 11.5951 9.75153 11.5951H9.72886Z" fill="#4E4E4E"/>
</g>
<defs>
<clipPath id="clip0_102_133">
<rect width="21" height="15" fill="white"/>
</clipPath>
</defs>
</svg>
