<svg width="19" height="19" viewBox="0 0 19 19" fill="none" xmlns="http://www.w3.org/2000/svg">
<path d="M5.14575 7.91663H3.56242V13.4583H5.14575V7.91663ZM9.89575 7.91663H8.31242V13.4583H9.89575V7.91663ZM16.6249 15.0416H1.58325V16.625H16.6249V15.0416ZM14.6458 7.91663H13.0624V13.4583H14.6458V7.91663ZM9.10409 2.58079L13.2287 4.74996H4.9795L9.10409 2.58079ZM9.10409 0.791626L1.58325 4.74996V6.33329H16.6249V4.74996L9.10409 0.791626Z" fill="white" fill-opacity="0.7"/>
<path d="M5.14575 7.91663H3.56242V13.4583H5.14575V7.91663ZM9.89575 7.91663H8.31242V13.4583H9.89575V7.91663ZM16.6249 15.0416H1.58325V16.625H16.6249V15.0416ZM14.6458 7.91663H13.0624V13.4583H14.6458V7.91663ZM9.10409 2.58079L13.2287 4.74996H4.9795L9.10409 2.58079ZM9.10409 0.791626L1.58325 4.74996V6.33329H16.6249V4.74996L9.10409 0.791626Z" fill="black" fill-opacity="0.2"/>
<path d="M5.14575 7.91663H3.56242V13.4583H5.14575V7.91663ZM9.89575 7.91663H8.31242V13.4583H9.89575V7.91663ZM16.6249 15.0416H1.58325V16.625H16.6249V15.0416ZM14.6458 7.91663H13.0624V13.4583H14.6458V7.91663ZM9.10409 2.58079L13.2287 4.74996H4.9795L9.10409 2.58079ZM9.10409 0.791626L1.58325 4.74996V6.33329H16.6249V4.74996L9.10409 0.791626Z" fill="black" fill-opacity="0.2"/>
</svg>
